<?xml version="1.0" standalone="no"?><!DOCTYPE svg PUBLIC "-//W3C//DTD SVG 1.1//EN" "http://www.w3.org/Graphics/SVG/1.1/DTD/svg11.dtd">
    <svg version="1.1"
      width="800"
      height="600"
      xmlns="http://www.w3.org/2000/svg"
    >
<defs>
            <style><![CDATA[
              svg{
              --white: #f3ffff;
              --red: hsl(0, 100%, 50%);
              }

              svg{
                background-color: black;
              }
              /* bottom left of text block */
              .bl {
                fill: var(--red);
                stroke: None;
              }
              #background {
                fill: url(#RadialBackground)
              }
              /* top right corner of text block */
              .tr {
                fill: var(--red);
                stroke: None;

              }
              rect {
                stroke: var(--white);
                fill: none
              }
              text {
                fill: var(--white);
                font-weight: bold;
              }
            ]]></style>
            <radialGradient id="RadialBackground" cx="50%" cy="50%" r="50%" fx="50%" fy="50%">
              <stop offset="0%" stop-color="#505050" />
              <stop offset="100%" stop-color="black" />
            </radialGradient>

          </defs>
<rect id="background" x="0" y="0" width="800" height="600" fill="url(#RadialBackround)"/>
<g font-family="Courier">
<text transform="translate(160.04659, 427.97882) rotate(0)" font-size="53.138123" >UNPOSTED</text>
<text transform="translate(455.6555, 227.78496) rotate(90)" fill="" font-size="33.745514" >INAPPOSITELY</text>
<text transform="translate(645.3677, 175.43878) rotate(90)" fill="" font-size="30.210876" >IMPASSIVELY</text>
<text transform="translate(209.66348, 120.65828) rotate(90)" fill="" font-size="44.809998" >BENTO</text>
<text transform="translate(545.16095, 258.88104) rotate(270)" font-size="34.088135" >RUMAKI</text>
<text transform="translate(595.162, 336.28116) rotate(270)" font-size="19.283142" >UNDERSHIRTED</text>
<text transform="translate(417.9083, 361.26013) rotate(270)" font-size="23.616943" >CANNABIC</text>
<text transform="translate(351.25357, 114.65228) rotate(90)" fill="" font-size="27.270508" >TWEEDY</text>
<text transform="translate(330.5113, 501.01556) rotate(0)" font-size="22.404999" >MINIM</text>
<text transform="translate(285.3729, 215.32797) rotate(90)" fill="" font-size="18.935669" >STUDDED</text>
<text transform="translate(510.244, 424.3946) rotate(0)" font-size="13.635254" >CRAGGY</text>
<text transform="translate(186.11087, 341.55017) rotate(270)" font-size="10.070297" >SYMBOLIZERS</text>
<text transform="translate(608.93, 491.21704) rotate(270)" font-size="10.561829" >SCABROUSLY</text>
<text transform="translate(436.95132, 410.66833) rotate(270)" font-size="10.0703125" >HOLOGRAPHER</text>
<text transform="translate(499.91943, 484.04865) rotate(0)" font-size="13.635254" >SEIZER</text>
<text transform="translate(580.7121, 353.5336) rotate(90)" fill="" font-size="10.561829" >REWEIGHING</text>
<text transform="translate(441.67944, 489.89063) rotate(0)" font-size="16.699707" >ESES</text>
<text transform="translate(180.81555, 186.27042) rotate(90)" fill="" font-size="10.070297" >SUASIVENESS</text>
<text transform="translate(588.1142, 156.79575) rotate(270)" font-size="10.0703125" >POLYCHROMED</text>
<text transform="translate(267.63303, 147.43549) rotate(0)" font-size="11.133133" >TECHNIQUE</text>
<text transform="translate(389.82172, 170.62714) rotate(270)" font-size="10.561829" >ADHESIVELY</text>
<text transform="translate(597.6506, 154.48676) rotate(0)" font-size="16.699707" >UKES</text>
<text transform="translate(135.40584, 332.3352) rotate(270)" font-size="12.623787" >TAUTING</text>
<text transform="translate(529.69104, 363.62613) rotate(270)" font-size="12.623779" >LOATHLY</text>
<text transform="translate(422.1698, 440.8467) rotate(90)" fill="" font-size="11.133118" >AUTHORESS</text>
<text transform="translate(192.36047, 116.33712) rotate(0)" font-size="13.635246" >ABSORB</text>
<text transform="translate(420.1373, 235.30727) rotate(90)" fill="" font-size="10.561829" >BESTRIDING</text>
<text transform="translate(226.87708, 482.19278) rotate(270)" font-size="12.623779" >ADVISES</text>
<text transform="translate(184.28159, 123.513596) rotate(90)" fill="" font-size="11.808472" >HAYSTACK</text>
<text transform="translate(552.40045, 194.5957) rotate(0)" font-size="11.808472" >SPOONILY</text>
<text transform="translate(394.73193, 169.14954) rotate(90)" fill="" font-size="9.641571" >FIBROSARCOMA</text>
<text transform="translate(334.59732, 286.65405) rotate(90)" fill="" font-size="10.561829" >COQUETTING</text>
<text transform="translate(177.52744, 184.06387) rotate(270)" font-size="12.623779" >GLANCES</text>
<text transform="translate(266.34943, 362.7424) rotate(0)" font-size="11.133148" >VAGARIOUS</text>
<text transform="translate(574.5306, 361.37042) rotate(270)" font-size="11.133118" >SUBTOPICS</text>
<text transform="translate(281.7326, 99.76714) rotate(0)" font-size="9.641579" >ACCLIMATIZER</text>
<text transform="translate(171.52776, 346.21872) rotate(270)" font-size="13.635254" >SCALAR</text>
<text transform="translate(371.2629, 260.34888) rotate(90)" fill="" font-size="9.641571" >MUNICIPALITY</text>
<text transform="translate(610.5333, 313.90332) rotate(270)" font-size="11.808472" >UNTESTED</text>
<text transform="translate(269.79788, 331.83228) rotate(270)" font-size="13.635254" >REJIGS</text>
<text transform="translate(660.57556, 583.25134) rotate(0)" font-size="11.133118" >ELECTUARY</text>
<text transform="translate(81.02751, 163.66983) rotate(0)" font-size="11.808472" >SOLANUMS</text>
<text transform="translate(725.81647, 449.15277) rotate(270)" font-size="11.133118" >BEDABBLED</text>
<text transform="translate(40.9585, 414.67432) rotate(0)" font-size="9.641571" >UNFORTUNATES</text>
<text transform="translate(649.8484, 13.286948) rotate(0)" font-size="11.808472" >HONEYBEE</text>
<text transform="translate(705.45465, 413.64383) rotate(270)" font-size="10.0703125" >AMPHIBOLIES</text>
<text transform="translate(555.54126, 566.9515) rotate(0)" font-size="14.9366455" >SAVES</text>
<text transform="translate(324.916, 227.64545) rotate(90)" fill="" font-size="9.641571" >TRANSSHIPPED</text>
<text transform="translate(161.512, 264.86243) rotate(270)" font-size="11.133133" >GYNAECEUM</text>
<text transform="translate(349.98608, 453.94043) rotate(0)" font-size="11.808472" >BORRELIA</text>
<text transform="translate(723.30444, 248.74484) rotate(90)" fill="" font-size="8.926392" >MICROPROJECTOR</text>
<text transform="translate(710.1381, 342.71408) rotate(0)" font-size="8.926361" >OVERDOCUMENTED</text>
<text transform="translate(69.93437, 226.82626) rotate(270)" font-size="8.623688" >ULTRASONOGRAPHY</text>
<text transform="translate(304.8602, 515.07074) rotate(90)" fill="" font-size="11.133148" >BETRAYING</text>
<text transform="translate(24.82729, 319.45065) rotate(90)" fill="" font-size="14.936665" >BURQA</text>
<text transform="translate(720.3889, 41.72902) rotate(90)" fill="" font-size="11.808472" >RERAISED</text>
<text transform="translate(189.03894, 21.135162) rotate(90)" fill="" font-size="12.623779" >MIDSIZE</text>
<text transform="translate(736.9305, 101.176) rotate(90)" fill="" font-size="11.808472" >WORRIERS</text>
<text transform="translate(69.236084, 311.25842) rotate(90)" fill="" font-size="11.133133" >GLISSADED</text>
<text transform="translate(45.258045, 58.544468) rotate(0)" font-size="8.926365" >DOLOROUSNESSES</text>
<text transform="translate(81.39296, 513.546) rotate(90)" fill="" font-size="10.561821" >INTENSIONS</text>
<text transform="translate(172.96858, 484.2106) rotate(270)" font-size="16.699707" >SPUR</text>
<text transform="translate(421.2304, 66.82234) rotate(270)" font-size="12.623779" >WRITHEN</text>
<text transform="translate(308.7055, 74.41728) rotate(0)" font-size="10.070297" >UNHANDINESS</text>
<text transform="translate(199.29924, 330.34457) rotate(270)" font-size="9.263321" >GREENSKEEPERS</text>
<text transform="translate(609.7146, 124.66672) rotate(270)" font-size="11.808472" >MIGRATED</text>
<text transform="translate(751.61523, 226.34232) rotate(270)" font-size="11.133118" >DEADWOODS</text>
<text transform="translate(44.331455, 224.00072) rotate(270)" font-size="14.936665" >TORII</text>
<text transform="translate(225.19951, 23.744987) rotate(90)" fill="" font-size="10.070297" >UNCHURCHING</text>
<text transform="translate(79.091644, 434.72357) rotate(0)" font-size="11.133118" >TURKOISES</text>
<text transform="translate(621.8276, 558.49835) rotate(270)" font-size="10.0703125" >PRECONIZING</text>
<text transform="translate(472.799, 197.0292) rotate(270)" font-size="11.133118" >NGULTRUMS</text>
<text transform="translate(751.16064, 512.32214) rotate(270)" font-size="10.561829" >PYORRHOEAS</text>
<text transform="translate(408.9612, 154.57242) rotate(90)" fill="" font-size="8.623688" >CIRCUMVOLUTIONS</text>
<text transform="translate(448.35654, 338.5067) rotate(270)" font-size="12.623779" >STINTED</text>
<text transform="translate(33.690453, 444.51013) rotate(90)" fill="" font-size="14.936665" >THUMB</text>
<text transform="translate(383.30365, 562.6145) rotate(270)" font-size="16.699707" >PULS</text>
<text transform="translate(258.2094, 28.89905) rotate(90)" fill="" font-size="11.133118" >REDBAITER</text>
<text transform="translate(148.76785, 508.6409) rotate(0)" font-size="14.936676" >FIVER</text>
<text transform="translate(156.59056, 407.31253) rotate(270)" font-size="11.808472" >NICTATED</text>
<text transform="translate(793.0891, 441.3331) rotate(270)" font-size="11.133118" >SHAMBOLIC</text>
<text transform="translate(347.7, 246.8452) rotate(270)" font-size="6.3118896" >AMYLENE</text>
<text transform="translate(688.45337, 442.92062) rotate(0)" font-size="6.817627" >ELYTRA</text>
<text transform="translate(269.6186, 493.22427) rotate(0)" font-size="5.904236" >FIXTURES</text>
<text transform="translate(188.24577, 588.6118) rotate(0)" font-size="6.3118896" >VERGING</text>
<text transform="translate(33.687687, 391.68298) rotate(0)" font-size="4.820801" >REDEFINITION</text>
<text transform="translate(317.43747, 42.26718) rotate(0)" font-size="4.4631844" >CURVILINEARITY</text>
<text transform="translate(770.7442, 217.3587) rotate(90)" fill="" font-size="5.904236" >WALKABLE</text>
<text transform="translate(620.1197, 295.73557) rotate(270)" font-size="5.5665894" >STEADINGS</text>
<text transform="translate(331.74506, 6.097913) rotate(90)" fill="" font-size="6.3118896" >TAMMIES</text>
<text transform="translate(691.9485, 155.86746) rotate(0)" font-size="6.817627" >MANTIC</text>
<text transform="translate(318.91498, 337.24844) rotate(270)" font-size="5.566559" >SORRINESS</text>
<text transform="translate(495.93506, 459.80658) rotate(270)" font-size="5.2809143" >THREADLIKE</text>
<text transform="translate(567.8177, 261.69562) rotate(270)" font-size="6.817627" >MARGAY</text>
<text transform="translate(598.5009, 377.7) rotate(90)" fill="" font-size="5.280884" >SECLUSIONS</text>
<text transform="translate(716.45386, 223.27394) rotate(270)" font-size="4.631653" >PRESCIENTIFIC</text>
<text transform="translate(148.79208, 167.35904) rotate(270)" font-size="4.631668" >AIRFREIGHTING</text>
<text transform="translate(72.93654, 421.85333) rotate(0)" font-size="4.631653" >CONSOLIDATING</text>
<text transform="translate(211.26718, 306.72177) rotate(0)" font-size="6.817627" >MOLLAH</text>
<text transform="translate(23.330212, 9.371138) rotate(0)" font-size="5.5665665" >UNUNUNIUM</text>
<text transform="translate(141.41531, 13.310194) rotate(0)" font-size="5.904236" >SLOWDOWN</text>
<text transform="translate(462.4154, 122.55764) rotate(0)" font-size="4.6316605" >DISPASSIONATE</text>
<text transform="translate(262.988, 548.24915) rotate(0)" font-size="5.904236" >BEFINGER</text>
<text transform="translate(749.2072, 446.40018) rotate(0)" font-size="6.3118896" >ADHERER</text>
<text transform="translate(481.9809, 227.2753) rotate(270)" font-size="6.3118896" >WISPISH</text>
<text transform="translate(618.5788, 53.89166) rotate(270)" font-size="5.904236" >ISTHMIAN</text>
<text transform="translate(347.40057, 532.466) rotate(90)" fill="" font-size="5.2809143" >CAPITALISE</text>
<text transform="translate(236.98683, 298.52908) rotate(90)" fill="" font-size="6.817627" >RADIUM</text>
<text transform="translate(649.1112, 410.5686) rotate(270)" font-size="5.904236" >LITHOSOL</text>
<text transform="translate(279.22516, 46.134995) rotate(270)" font-size="5.566559" >ETHOGRAMS</text>
<text transform="translate(573.57837, 430.3357) rotate(90)" fill="" font-size="6.3118896" >GARLAND</text>
<text transform="translate(723.57367, 109.53727) rotate(90)" fill="" font-size="5.904236" >DIHYDRIC</text>
<text transform="translate(723.7672, 17.038393) rotate(0)" font-size="7.4683323" >DOBRA</text>
<text transform="translate(436.28207, 86.688705) rotate(270)" font-size="7.4683228" >REEKS</text>
<text transform="translate(21.53263, 139.43282) rotate(0)" font-size="5.566574" >PAUPERING</text>
<text transform="translate(614.23505, 197.01999) rotate(90)" fill="" font-size="4.631653" >GRANDMOTHERLY</text>
<text transform="translate(62.263012, 271.6418) rotate(90)" fill="" font-size="5.2809105" >STALEMATED</text>
<text transform="translate(790.8596, 315.473) rotate(90)" fill="" font-size="5.0351563" >RUBRICATING</text>
<text transform="translate(149.08456, 289.2703) rotate(270)" font-size="5.904236" >CHARQUIS</text>
<text transform="translate(524.7688, 494.20508) rotate(0)" font-size="5.2809143" >TANGENCIES</text>
<text transform="translate(632.8719, 204.20215) rotate(270)" font-size="4.631653" >UNCALCULATING</text>
<text transform="translate(125.725365, 219.47415) rotate(270)" font-size="6.817627" >SENNET</text>
<text transform="translate(794.3556, 365.58768) rotate(90)" fill="" font-size="5.5665894" >PRESERVED</text>
<text transform="translate(641.4408, 95.06364) rotate(0)" font-size="6.3118973" >LARIATS</text>
<text transform="translate(781.59106, 58.592033) rotate(270)" font-size="5.280884" >TETRAMERIC</text>
<text transform="translate(685.7003, 337.1707) rotate(90)" fill="" font-size="5.5665894" >BRANDINGS</text>
<text transform="translate(352.73886, 578.8284) rotate(0)" font-size="7.4683228" >DOTES</text>
<text transform="translate(558.3632, 464.32465) rotate(90)" fill="" font-size="5.280884" >IGUANODONS</text>
<text transform="translate(334.41058, 534.05505) rotate(90)" fill="" font-size="4.463196" >ROUNDABOUTNESS</text>
<text transform="translate(697.4282, 240.02509) rotate(90)" fill="" font-size="5.0351563" >CONTAINABLE</text>
<text transform="translate(692.66125, 31.72245) rotate(0)" font-size="5.904236" >GASLIGHT</text>
<text transform="translate(667.3914, 527.03076) rotate(90)" fill="" font-size="5.904236" >RESUMERS</text>
<text transform="translate(11.998081, 553.36755) rotate(270)" font-size="5.280909" >PRESCORING</text>
<text transform="translate(665.3505, 463.54407) rotate(90)" fill="" font-size="5.5665894" >BOWERBIRD</text>
<text transform="translate(426.75055, 526.1505) rotate(0)" font-size="4.820801" >SECTARIANIZE</text>
<text transform="translate(182.35559, 30.474043) rotate(270)" font-size="5.904236" >TALENTED</text>
<text transform="translate(547.57416, 295.0074) rotate(90)" fill="" font-size="5.280884" >FORMIDABLE</text>
<text transform="translate(88.72471, 354.7142) rotate(90)" fill="" font-size="5.904236" >CREDIBLE</text>
<text transform="translate(323.52094, 577.98004) rotate(270)" font-size="5.904236" >BEREAVES</text>
<text transform="translate(38.915825, 107.42311) rotate(270)" font-size="5.0351486" >MARTENSITES</text>
<text transform="translate(424.70798, 116.34193) rotate(90)" fill="" font-size="5.2809143" >EXPURGATES</text>
<text transform="translate(443.686, 57.475662) rotate(270)" font-size="6.817627" >NITROS</text>
<text transform="translate(596.30396, 27.689194) rotate(90)" fill="" font-size="5.904236" >BIDARKAS</text>
<text transform="translate(293.43024, 6.931615) rotate(90)" fill="" font-size="4.820801" >ARRANGEMENTS</text>
<text transform="translate(386.45477, 0.54638386) rotate(90)" fill="" font-size="5.0351563" >CONFLUENCES</text>
<text transform="translate(8.073425, 416.0506) rotate(0)" font-size="5.2809143" >BRUTIFYING</text>
<text transform="translate(120.38222, 597.6295) rotate(270)" font-size="5.0351486" >POMPOUSNESS</text>
<text transform="translate(392.06897, 328.1845) rotate(270)" font-size="6.3118896" >HAPPENS</text>
<text transform="translate(102.25906, 387.84363) rotate(270)" font-size="5.0351486" >CATAPULTING</text>
<text transform="translate(618.7352, 410.5973) rotate(270)" font-size="5.5665894" >HEADDRESS</text>
<text transform="translate(185.4888, 546.8252) rotate(270)" font-size="5.566559" >ISOSMOTIC</text>
<text transform="translate(293.4287, 303.39975) rotate(0)" font-size="6.3118896" >HICCUPS</text>
<text transform="translate(359.59692, 338.52533) rotate(270)" font-size="5.566559" >PRECURSOR</text>
<text transform="translate(615.4319, 68.58809) rotate(0)" font-size="4.8207893" >HOMINIZATION</text>
<text transform="translate(514.60657, 294.83743) rotate(270)" font-size="5.2809143" >DISSUADERS</text>
<text transform="translate(78.70093, 262.31332) rotate(90)" fill="" font-size="5.5665665" >BEEFCAKES</text>
<text transform="translate(103.44954, 277.2625) rotate(0)" font-size="5.2809143" >CATERESSES</text>
<text transform="translate(62.576485, 478.19138) rotate(0)" font-size="6.3118896" >CLARIFY</text>
<text transform="translate(301.14984, 527.4055) rotate(270)" font-size="5.0351563" >SACRIFICERS</text>
<text transform="translate(146.52396, 520.56976) rotate(90)" fill="" font-size="5.566559" >ARTLESSLY</text>
<text transform="translate(121.055984, 254.10347) rotate(0)" font-size="6.3118896" >LABOURS</text>
<text transform="translate(565.9787, 70.46864) rotate(90)" fill="" font-size="5.0351563" >NATURALNESS</text>
<text transform="translate(15.226746, 174.99376) rotate(90)" fill="" font-size="5.0351486" >PRECLEARING</text>
<text transform="translate(429.0391, 176.44365) rotate(0)" font-size="6.3118896" >AMREETA</text>
<text transform="translate(61.152077, 20.647287) rotate(0)" font-size="5.2809086" >ANGELOLOGY</text>
<text transform="translate(121.63544, 64.82513) rotate(90)" fill="" font-size="5.904236" >ROLLMOPS</text>
<text transform="translate(648.4496, 464.586) rotate(90)" fill="" font-size="5.280884" >PROPOUNDED</text>
<text transform="translate(143.26486, 417.23413) rotate(90)" fill="" font-size="8.3498535" >JUBE</text>
<text transform="translate(25.184631, 428.03442) rotate(90)" fill="" font-size="5.904236" >KAKEMONO</text>
<text transform="translate(566.4346, 173.9934) rotate(270)" font-size="5.280884" >ORGANISMAL</text>
<text transform="translate(205.29614, 367.78363) rotate(270)" font-size="4.4631805" >QUADRUPLICATES</text>
<text transform="translate(791.76776, 71.09449) rotate(270)" font-size="5.5665894" >FARADIZED</text>
<text transform="translate(567.7519, 511.5946) rotate(90)" fill="" font-size="7.4683228" >ROOSE</text>
<text transform="translate(257.40128, 494.15976) rotate(90)" fill="" font-size="4.463196" >UNDRAMATICALLY</text>
<text transform="translate(737.97656, 405.19687) rotate(270)" font-size="4.820801" >SUBPOTENCIES</text>
<text transform="translate(48.657036, 264.38678) rotate(90)" fill="" font-size="5.2809105" >ARROWROOTS</text>
<text transform="translate(691.9003, 525.12726) rotate(270)" font-size="5.0351563" >QUINCUNXIAL</text>
<text transform="translate(73.91567, 76.603676) rotate(90)" fill="" font-size="6.3118973" >CLOWDER</text>
<text transform="translate(540.9946, 90.0994) rotate(270)" font-size="6.3118896" >INDEXED</text>
<text transform="translate(508.11005, 451.4164) rotate(270)" font-size="8.3498535" >CAPH</text>
<text transform="translate(295.38754, 468.80164) rotate(0)" font-size="6.817627" >REGIME</text>
<text transform="translate(758.91266, 484.21976) rotate(0)" font-size="6.817627" >SPINED</text>
<text transform="translate(4.41885, 521.4736) rotate(0)" font-size="4.820801" >WORSHIPFULLY</text>
<text transform="translate(411.93848, 91.336296) rotate(90)" fill="" font-size="6.817627" >ANGINA</text>
<text transform="translate(100.844574, 548.0517) rotate(270)" font-size="5.904236" >RELIEVES</text>
<text transform="translate(684.3396, 541.6862) rotate(90)" fill="" font-size="5.5665894" >WINDBURNT</text>
<text transform="translate(499.4505, 212.88542) rotate(90)" fill="" font-size="5.566559" >RUSSETING</text>
<text transform="translate(769.1996, 119.95897) rotate(270)" font-size="5.5665894" >POMPADOUR</text>
<text transform="translate(669.2668, 142.29642) rotate(90)" fill="" font-size="5.904236" >CRANKIER</text>
<text transform="translate(549.3963, 538.9443) rotate(270)" font-size="5.280884" >MALATHIONS</text>
<text transform="translate(514.1439, 62.120033) rotate(0)" font-size="5.2809105" >TREATMENTS</text>
<text transform="translate(16.948795, 165.5307) rotate(0)" font-size="6.3118896" >SAMBHUR</text>
<text transform="translate(236.25345, 585.39166) rotate(270)" font-size="5.2809143" >COPYREADER</text>
<text transform="translate(757.86725, 409.23492) rotate(270)" font-size="5.5665894" >POLYPHAGY</text>
<text transform="translate(680.6693, 481.0361) rotate(0)" font-size="5.566559" >DISTURBER</text>
<text transform="translate(673.0877, 51.680874) rotate(270)" font-size="6.817627" >REASON</text>
<text transform="translate(203.162, 208.19965) rotate(270)" font-size="5.566574" >NUCLEASES</text>
<text transform="translate(655.747, 404.34335) rotate(90)" fill="" font-size="5.5665894" >PROROGUES</text>
<text transform="translate(132.46184, 120.1679) rotate(270)" font-size="4.8207855" >TWELVEMONTHS</text>
<text transform="translate(674.6153, 410.62845) rotate(90)" fill="" font-size="5.280884" >SNUBNESSES</text>
</g>
</svg>
