<?xml version="1.0" standalone="no"?><!DOCTYPE svg PUBLIC "-//W3C//DTD SVG 1.1//EN" "http://www.w3.org/Graphics/SVG/1.1/DTD/svg11.dtd">
    <svg version="1.1"
      width="800"
      height="600"
      xmlns="http://www.w3.org/2000/svg"
    >
<defs>
            <style><![CDATA[
              svg{
              --white: #f3ffff;
              --red: hsl(0, 100%, 50%);
              }

              svg{
                background-color: black;
              }
              /* bottom left of text block */
              .bl {
                fill: var(--red);
                stroke: None;
              }
              #background {
                fill: url(#RadialBackground)
              }
              /* top right corner of text block */
              .tr {
                fill: var(--red);
                stroke: None;

              }
              rect {
                stroke: var(--white);
                fill: none
              }
              text {
                fill: var(--white);
                font-weight: bold;
              }
            ]]></style>
            <radialGradient id="RadialBackground" cx="50%" cy="50%" r="50%" fx="50%" fy="50%">
              <stop offset="0%" stop-color="#505050" />
              <stop offset="100%" stop-color="black" />
            </radialGradient>

          </defs>
<rect id="background" x="0" y="0" width="800" height="600" fill="url(#RadialBackround)"/>
<g font-family="Courier">
<text transform="translate(312.4006, 246.30092) rotate(90)" fill="" font-size="42.247284" >SPECIOSITY</text>
<text transform="translate(214.42886, 210.41425) rotate(90)" fill="" font-size="38.965973" >DIPNETTED</text>
<text transform="translate(217.34464, 172.33167) rotate(0)" font-size="52.278336" >BELAY</text>
<text transform="translate(513.8531, 498.02264) rotate(270)" font-size="38.965973" >SPACESHIP</text>
<text transform="translate(582.8773, 437.81076) rotate(270)" font-size="40.90576" >NURLED</text>
<text transform="translate(473.73947, 247.94821) rotate(0)" font-size="19.283157" >SARDONICISMS</text>
<text transform="translate(144.79898, 387.6799) rotate(90)" fill="" font-size="23.616943" >RETIFORM</text>
<text transform="translate(460.04803, 223.16324) rotate(270)" font-size="23.616943" >UNGELDED</text>
<text transform="translate(672.24097, 243.02252) rotate(270)" font-size="23.616943" >HAZARDER</text>
<text transform="translate(258.23508, 176.416) rotate(90)" fill="" font-size="15.842712" >DISCOMMEND</text>
<text transform="translate(140.67744, 276.02017) rotate(270)" font-size="16.6997" >COLLECTED</text>
<text transform="translate(413.43958, 293.151) rotate(270)" font-size="20.45288" >OTITIS</text>
<text transform="translate(172.44513, 330.3092) rotate(270)" font-size="10.070297" >DISBARMENTS</text>
<text transform="translate(644.54156, 442.02725) rotate(90)" fill="" font-size="12.623779" >UNYOUNG</text>
<text transform="translate(435.70755, 369.95627) rotate(270)" font-size="10.0703125" >RADIOLUCENT</text>
<text transform="translate(274.24106, 177.33995) rotate(90)" fill="" font-size="12.623779" >DEBACLE</text>
<text transform="translate(524.8204, 385.33502) rotate(270)" font-size="9.641602" >DELECTATIONS</text>
<text transform="translate(534.3364, 145.34381) rotate(90)" fill="" font-size="10.561829" >DESORPTION</text>
<text transform="translate(425.6148, 206.83475) rotate(270)" font-size="10.561829" >OUTLANDERS</text>
<text transform="translate(615.12384, 262.0407) rotate(90)" fill="" font-size="11.808472" >HALFTIME</text>
<text transform="translate(392.3613, 292.80154) rotate(270)" font-size="14.936676" >DEFAT</text>
<text transform="translate(637.79614, 337.72168) rotate(90)" fill="" font-size="8.623657" >DEPENDABILITIES</text>
<text transform="translate(294.26126, 215.17432) rotate(90)" fill="" font-size="14.936676" >ZONAL</text>
<text transform="translate(162.31453, 181.29993) rotate(270)" font-size="8.926361" >SUBSTANTIATING</text>
<text transform="translate(443.64273, 421.89746) rotate(270)" font-size="13.635254" >PATOIS</text>
<text transform="translate(548.85565, 135.91777) rotate(90)" fill="" font-size="10.0703125" >FIGURATIONS</text>
<text transform="translate(200.37943, 214.57364) rotate(270)" font-size="13.635254" >ALLOWS</text>
<text transform="translate(294.85068, 296.03256) rotate(90)" fill="" font-size="12.623779" >LOBSTER</text>
<text transform="translate(171.53076, 437.93942) rotate(90)" fill="" font-size="11.133133" >EMOLUMENT</text>
<text transform="translate(525.1386, 386.79617) rotate(90)" fill="" font-size="11.808472" >SIMMERED</text>
<text transform="translate(610.0257, 381.85907) rotate(270)" font-size="11.133118" >HYDROXYLS</text>
<text transform="translate(203.57655, 492.31842) rotate(270)" font-size="11.808472" >REPOTTED</text>
<text transform="translate(506.94278, 143.27971) rotate(270)" font-size="12.623779" >TWIBILS</text>
<text transform="translate(138.25623, 179.52042) rotate(270)" font-size="11.133133" >DELIRIOUS</text>
<text transform="translate(210.1044, 463.63116) rotate(0)" font-size="12.623779" >TRICKLY</text>
<text transform="translate(461.3101, 173.17024) rotate(0)" font-size="11.808472" >DEFLATOR</text>
<text transform="translate(615.6348, 224.61871) rotate(270)" font-size="12.623779" >MAXWELL</text>
<text transform="translate(197.82574, 326.78677) rotate(270)" font-size="12.623779" >JADEITE</text>
<text transform="translate(191.30818, 337.41467) rotate(90)" fill="" font-size="10.070297" >OVERWATCHED</text>
<text transform="translate(518.1103, 451.84973) rotate(90)" fill="" font-size="13.635254" >JADISH</text>
<text transform="translate(297.3688, 94.86258) rotate(0)" font-size="12.623787" >WEIRDIE</text>
<text transform="translate(356.20508, 396.22592) rotate(90)" fill="" font-size="10.0703125" >POSSESSIVES</text>
<text transform="translate(412.68176, 401.98868) rotate(90)" fill="" font-size="10.0703125" >SACCULATION</text>
<text transform="translate(737.1173, 299.71655) rotate(270)" font-size="14.9366455" >KENDO</text>
<text transform="translate(587.9398, 169.83362) rotate(0)" font-size="11.808472" >LENTICEL</text>
<text transform="translate(300.59186, 59.620857) rotate(0)" font-size="11.133133" >GALLINULE</text>
<text transform="translate(710.6801, 72.87454) rotate(0)" font-size="10.561817" >PRECHARGES</text>
<text transform="translate(571.4591, 537.2092) rotate(270)" font-size="10.0703125" >DISENTITLED</text>
<text transform="translate(727.76, 102.29702) rotate(90)" fill="" font-size="9.641602" >SEAMSTRESSES</text>
<text transform="translate(393.98746, 146.58559) rotate(270)" font-size="11.808472" >ALIGNING</text>
<text transform="translate(299.69366, 491.1275) rotate(270)" font-size="16.699707" >RUGA</text>
<text transform="translate(606.06177, 566.494) rotate(0)" font-size="11.133118" >BEACHWEAR</text>
<text transform="translate(782.19806, 55.805252) rotate(270)" font-size="13.635254" >POLLEE</text>
<text transform="translate(451.93472, 67.384315) rotate(0)" font-size="11.808472" >FIRETRAP</text>
<text transform="translate(678.491, 406.018) rotate(90)" fill="" font-size="11.808472" >SOUSLIKS</text>
<text transform="translate(364.8853, 479.16248) rotate(90)" fill="" font-size="10.561829" >MICROPYLES</text>
<text transform="translate(753.9419, 73.51549) rotate(90)" fill="" font-size="8.623657" >PHOTOENGRAVINGS</text>
<text transform="translate(630.6086, 98.64042) rotate(0)" font-size="11.133133" >OVERACTED</text>
<text transform="translate(590.1781, 599.8218) rotate(0)" font-size="9.263306" >FASHIONMONGER</text>
<text transform="translate(185.03867, 573.4739) rotate(0)" font-size="10.561829" >TRADEMARKS</text>
<text transform="translate(8.578968, 229.49223) rotate(90)" fill="" font-size="12.623787" >TOWHEES</text>
<text transform="translate(434.90363, 589.4695) rotate(0)" font-size="11.808472" >EXTENDED</text>
<text transform="translate(405.71567, 396.22107) rotate(270)" font-size="10.0703125" >ANEMOMETERS</text>
<text transform="translate(78.88355, 478.5947) rotate(270)" font-size="11.808472" >CONODONT</text>
<text transform="translate(591.06195, 22.565317) rotate(90)" fill="" font-size="8.926392" >ENCEPHALOGRAMS</text>
<text transform="translate(709.1883, 338.31152) rotate(90)" fill="" font-size="11.808472" >BLUESTEM</text>
<text transform="translate(795.4827, 313.03983) rotate(270)" font-size="12.623779" >NAVAIDS</text>
<text transform="translate(138.39035, 43.996666) rotate(90)" fill="" font-size="11.808472" >SAPIENTS</text>
<text transform="translate(453.61557, 48.974274) rotate(0)" font-size="12.623787" >SARDARS</text>
<text transform="translate(36.53574, 220.11066) rotate(270)" font-size="11.133133" >BOARHOUND</text>
<text transform="translate(390.09866, 475.33237) rotate(270)" font-size="9.263336" >LACKADAISICAL</text>
<text transform="translate(679.10565, 202.56107) rotate(90)" fill="" font-size="8.926392" >GONADOTROPHINS</text>
<text transform="translate(618.9277, 491.33298) rotate(90)" fill="" font-size="11.133118" >PSAMMITIC</text>
<text transform="translate(173.89279, 121.439766) rotate(90)" fill="" font-size="9.641571" >INTIMIDATORS</text>
<text transform="translate(538.43097, 114.29865) rotate(270)" font-size="11.808472" >PLEACHED</text>
<text transform="translate(302.19995, 523.61523) rotate(0)" font-size="11.808472" >BULLDOGS</text>
<text transform="translate(11.48901, 379.70282) rotate(0)" font-size="14.936676" >BLAIN</text>
<text transform="translate(753.24945, 286.89844) rotate(270)" font-size="9.641602" >GROGGINESSES</text>
<text transform="translate(773.5221, 342.77322) rotate(270)" font-size="11.808472" >GRUNGERS</text>
<text transform="translate(625.03644, 182.8946) rotate(90)" fill="" font-size="13.635254" >CHARRS</text>
<text transform="translate(561.1745, 81.19254) rotate(90)" fill="" font-size="14.9366455" >ELVES</text>
<text transform="translate(28.196812, 321.90298) rotate(90)" fill="" font-size="4.311844" >FORGETFULNESSES</text>
<text transform="translate(753.2627, 494.83365) rotate(270)" font-size="4.3118286" >DISHEARTENMENTS</text>
<text transform="translate(250.88548, 553.6944) rotate(0)" font-size="5.5665894" >CHANCIEST</text>
<text transform="translate(671.894, 333.2774) rotate(270)" font-size="6.3118896" >MEERKAT</text>
<text transform="translate(785.0125, 394.01044) rotate(270)" font-size="5.5665894" >DIARISTIC</text>
<text transform="translate(32.002354, 596.9366) rotate(0)" font-size="5.0351563" >CONTAINABLE</text>
<text transform="translate(406.40106, 216.57816) rotate(270)" font-size="5.2809143" >LATIFUNDIA</text>
<text transform="translate(706.90405, 533.0083) rotate(90)" fill="" font-size="5.904236" >DEADENED</text>
<text transform="translate(298.46268, 214.76662) rotate(270)" font-size="5.2809143" >COFINANCES</text>
<text transform="translate(425.6875, 498.87222) rotate(90)" fill="" font-size="5.2809143" >INVITATORY</text>
<text transform="translate(118.82229, 425.04916) rotate(270)" font-size="5.5665665" >BODYSUITS</text>
<text transform="translate(431.17267, 232.91237) rotate(270)" font-size="4.820801" >APOCALYPTISM</text>
<text transform="translate(16.865253, 517.6165) rotate(0)" font-size="4.3118286" >INTELLECTUALITY</text>
<text transform="translate(398.68393, 451.91208) rotate(270)" font-size="5.2809143" >DISPUTABLE</text>
<text transform="translate(713.5198, 29.644918) rotate(0)" font-size="5.5665665" >WASSAILED</text>
<text transform="translate(155.39542, 78.546455) rotate(0)" font-size="4.4631805" >INEVITABLENESS</text>
<text transform="translate(64.0316, 498.40607) rotate(270)" font-size="4.4631844" >CLEARINGHOUSES</text>
<text transform="translate(325.72748, 594.62885) rotate(0)" font-size="6.817627" >COLLAR</text>
<text transform="translate(307.34845, 14.7259) rotate(90)" fill="" font-size="6.3118896" >SHROFFS</text>
<text transform="translate(766.54224, 185.55887) rotate(0)" font-size="5.2809143" >FIBRINOIDS</text>
<text transform="translate(21.779156, 355.6786) rotate(270)" font-size="6.3118935" >INDUING</text>
<text transform="translate(80.50661, 220.55211) rotate(90)" fill="" font-size="4.4631805" >FLUOROSCOPISTS</text>
<text transform="translate(713.53845, 507.5006) rotate(0)" font-size="5.2809143" >SPREADABLE</text>
<text transform="translate(161.59477, 578.7961) rotate(270)" font-size="8.3498535" >THAT</text>
<text transform="translate(648.0867, 19.355034) rotate(90)" fill="" font-size="6.3118896" >BOUNCER</text>
<text transform="translate(553.6131, 508.8715) rotate(270)" font-size="5.904236" >ACQUIRES</text>
<text transform="translate(526.861, 261.6848) rotate(90)" fill="" font-size="6.817627" >ENSIGN</text>
<text transform="translate(78.492645, 94.28766) rotate(270)" font-size="4.6316605" >LAWLESSNESSES</text>
<text transform="translate(53.37906, 141.71605) rotate(0)" font-size="6.817627" >ALWAYS</text>
<text transform="translate(414.258, 527.8657) rotate(270)" font-size="6.3118896" >TIMEOUT</text>
<text transform="translate(680.6267, 485.1556) rotate(90)" fill="" font-size="5.280884" >RECOMPENSE</text>
<text transform="translate(701.2212, 593.85583) rotate(270)" font-size="5.280884" >PARMIGIANO</text>
<text transform="translate(293.1816, 103.48892) rotate(0)" font-size="5.2809067" >SLABBERING</text>
<text transform="translate(149.48616, 584.93835) rotate(270)" font-size="5.2809143" >HYDROMANCY</text>
<text transform="translate(305.27954, 200.20787) rotate(0)" font-size="6.3118896" >LISTELS</text>
<text transform="translate(83.68263, 202.8928) rotate(270)" font-size="4.6316605" >ARGUMENTATIVE</text>
<text transform="translate(184.03387, 438.77) rotate(90)" fill="" font-size="5.2809143" >ESTHESISES</text>
<text transform="translate(423.97183, 374.23526) rotate(90)" fill="" font-size="4.820801" >DESACRALIZED</text>
<text transform="translate(38.698006, 48.265385) rotate(0)" font-size="5.2809105" >PROPHESIES</text>
<text transform="translate(704.1662, 106.43735) rotate(270)" font-size="6.3118896" >OUTMOST</text>
<text transform="translate(88.0085, 368.00687) rotate(0)" font-size="5.0351563" >DISENTITLES</text>
<text transform="translate(42.42773, 326.40253) rotate(90)" fill="" font-size="6.3118935" >LEGATOS</text>
<text transform="translate(41.087627, 512.158) rotate(270)" font-size="6.817623" >AVATAR</text>
<text transform="translate(158.7513, 351.18234) rotate(0)" font-size="5.904236" >DIASTERS</text>
<text transform="translate(620.0043, 478.24387) rotate(270)" font-size="6.817627" >EAGERS</text>
<text transform="translate(24.497318, 575.0928) rotate(0)" font-size="6.817627" >POETIC</text>
<text transform="translate(129.52394, 495.81564) rotate(270)" font-size="5.5665665" >REPANELED</text>
<text transform="translate(787.24225, 119.48175) rotate(90)" fill="" font-size="5.280884" >PENETRALIA</text>
<text transform="translate(209.67645, 338.968) rotate(270)" font-size="5.904236" >CASHMERE</text>
<text transform="translate(119.48471, 116.35602) rotate(0)" font-size="5.904236" >PRUNELLO</text>
<text transform="translate(43.781662, 428.86398) rotate(90)" fill="" font-size="5.0351486" >OUTSLICKING</text>
<text transform="translate(711.6977, 594.8911) rotate(0)" font-size="5.5665894" >WASSAILER</text>
<text transform="translate(791.4537, 432.69562) rotate(90)" fill="" font-size="6.3118896" >STOOGED</text>
<text transform="translate(386.31955, 217.56105) rotate(270)" font-size="5.2809143" >PARODISTIC</text>
<text transform="translate(565.5612, 189.93187) rotate(270)" font-size="5.904236" >RIPPLIER</text>
<text transform="translate(787.75757, 328.85706) rotate(90)" fill="" font-size="5.904236" >TWEEDIER</text>
<text transform="translate(269.04086, 83.19855) rotate(90)" fill="" font-size="5.904236" >LEISURES</text>
<text transform="translate(429.90466, 60.11381) rotate(90)" fill="" font-size="5.904236" >CONTINUO</text>
<text transform="translate(725.906, 428.0071) rotate(0)" font-size="6.817627" >TRYSTE</text>
<text transform="translate(126.75752, 406.75327) rotate(270)" font-size="5.0351486" >ORIGINATION</text>
<text transform="translate(221.80853, 488.61874) rotate(90)" fill="" font-size="5.2809143" >PROCESSING</text>
<text transform="translate(15.951729, 476.99918) rotate(0)" font-size="4.631653" >PARASYNTHESIS</text>
<text transform="translate(716.6378, 403.1232) rotate(90)" fill="" font-size="6.817627" >CONVOY</text>
<text transform="translate(532.47516, 255.8856) rotate(0)" font-size="4.8207855" >OPTOMETRISTS</text>
<text transform="translate(604.02966, 153.70738) rotate(270)" font-size="5.5665894" >TOXICANTS</text>
<text transform="translate(278.9171, 337.17126) rotate(270)" font-size="4.3118286" >INGENUOUSNESSES</text>
<text transform="translate(16.889572, 414.04) rotate(90)" fill="" font-size="7.4683323" >INGOT</text>
<text transform="translate(60.60133, 448.99557) rotate(270)" font-size="5.5665665" >PURCHASER</text>
<text transform="translate(360.94675, 570.55743) rotate(0)" font-size="4.3118286" >TRANSPARENTNESS</text>
<text transform="translate(751.965, 438.2144) rotate(0)" font-size="5.2809143" >FINALITIES</text>
<text transform="translate(172.03616, 556.4891) rotate(90)" fill="" font-size="5.566559" >RIPOSTING</text>
<text transform="translate(102.01359, 151.26651) rotate(90)" fill="" font-size="7.4683304" >HEMES</text>
<text transform="translate(75.08536, 410.1646) rotate(0)" font-size="6.817627" >KNEADS</text>
<text transform="translate(538.49774, 549.3417) rotate(90)" fill="" font-size="5.5665894" >FULLBACKS</text>
<text transform="translate(110.48613, 141.73108) rotate(270)" font-size="4.6316605" >FOREIGNNESSES</text>
<text transform="translate(579.59973, 212.56892) rotate(270)" font-size="5.280884" >MIXOLOGIES</text>
<text transform="translate(427.48682, 245.61224) rotate(0)" font-size="5.2809143" >MILLIMETER</text>
<text transform="translate(271.26627, 376.28503) rotate(270)" font-size="6.817627" >HANSAS</text>
<text transform="translate(674.8679, 381.38602) rotate(0)" font-size="6.3118896" >SHYLOCK</text>
<text transform="translate(182.37944, 109.05011) rotate(270)" font-size="5.904236" >GOVERNED</text>
<text transform="translate(255.2165, 29.860353) rotate(0)" font-size="6.3118935" >SIGNAGE</text>
<text transform="translate(516.2043, 47.969913) rotate(270)" font-size="6.817627" >MAGGOT</text>
<text transform="translate(85.23636, 26.867867) rotate(90)" fill="" font-size="5.5665665" >REDLINING</text>
<text transform="translate(580.2925, 123.27547) rotate(90)" fill="" font-size="6.817627" >POLYPI</text>
<text transform="translate(453.57953, 491.9639) rotate(90)" fill="" font-size="5.0351563" >NETIQUETTES</text>
<text transform="translate(755.52234, 248.16148) rotate(0)" font-size="5.566574" >COENACTED</text>
<text transform="translate(493.70557, 118.26475) rotate(270)" font-size="6.817627" >PARLED</text>
<text transform="translate(39.24818, 29.160976) rotate(270)" font-size="5.904236" >THICKETS</text>
<text transform="translate(77.912994, 565.9604) rotate(270)" font-size="6.3118896" >LOWLILY</text>
<text transform="translate(464.1116, 456.32166) rotate(90)" fill="" font-size="4.820801" >CORROBORATED</text>
<text transform="translate(356.8923, 324.7113) rotate(90)" fill="" font-size="9.641571" >GIE</text>
<text transform="translate(158.88643, 289.938) rotate(270)" font-size="5.2809143" >ACCOUTRING</text>
<text transform="translate(721.6448, 113.56502) rotate(270)" font-size="5.280884" >INDECENTLY</text>
<text transform="translate(521.85126, 530.0936) rotate(0)" font-size="4.820801" >OVERHONORING</text>
<text transform="translate(170.44992, 512.1347) rotate(0)" font-size="6.3118896" >SLICKER</text>
<text transform="translate(97.90268, 540.4746) rotate(90)" fill="" font-size="4.8207855" >NONCONSCIOUS</text>
<text transform="translate(662.66797, 523.6386) rotate(0)" font-size="5.904236" >CODEINAS</text>
<text transform="translate(17.385674, 328.6734) rotate(270)" font-size="5.904236" >SUMMITAL</text>
<text transform="translate(104.32329, 120.07542) rotate(270)" font-size="5.2809067" >UNCORSETED</text>
<text transform="translate(682.7816, 161.2469) rotate(0)" font-size="6.3118896" >CONDORS</text>
<text transform="translate(375.2449, 58.10423) rotate(0)" font-size="5.5665665" >FLASHLAMP</text>
<text transform="translate(766.6333, 420.09265) rotate(270)" font-size="4.631653" >CATALYTICALLY</text>
<text transform="translate(180.60464, 540.1608) rotate(0)" font-size="6.3118896" >ETHANOL</text>
<text transform="translate(375.67578, 358.8511) rotate(90)" fill="" font-size="6.3118896" >LISPERS</text>
<text transform="translate(19.134903, 93.72289) rotate(90)" fill="" font-size="5.904236" >RECOMMIT</text>
<text transform="translate(658.449, 283.2591) rotate(270)" font-size="4.820801" >PRESIGNIFIES</text>
<text transform="translate(291.08783, 554.14716) rotate(90)" fill="" font-size="5.566559" >CINNABARS</text>
<text transform="translate(624.57526, 323.48923) rotate(90)" fill="" font-size="4.631653" >STIPENDIARIES</text>
<text transform="translate(639.5221, 54.350353) rotate(0)" font-size="5.0351486" >AUTOGRAPHIC</text>
<text transform="translate(115.39163, 6.584573) rotate(0)" font-size="5.035149" >INCULCATORS</text>
<text transform="translate(643.5984, 80.39825) rotate(270)" font-size="6.817627" >UPCAST</text>
<text transform="translate(39.25476, 224.27759) rotate(90)" fill="" font-size="6.3118935" >LEEWARD</text>
<text transform="translate(597.87866, 420.73703) rotate(0)" font-size="6.817627" >GAVAGE</text>
<text transform="translate(588.2055, 200.79167) rotate(270)" font-size="6.3118896" >SASHING</text>
<text transform="translate(667.82196, 0.07338524) rotate(90)" fill="" font-size="6.817627" >BALLED</text>
<text transform="translate(145.07484, 179.5495) rotate(90)" fill="" font-size="4.631668" >CONSULTATIONS</text>
<text transform="translate(510.81372, 578.1776) rotate(270)" font-size="6.3118896" >GODDAMS</text>
<text transform="translate(419.86896, 552.7866) rotate(270)" font-size="5.566559" >IDIOPATHY</text>
<text transform="translate(744.01044, 174.52748) rotate(270)" font-size="5.280884" >TAPESTRIED</text>
</g>
</svg>
