<?xml version="1.0" standalone="no"?><!DOCTYPE svg PUBLIC "-//W3C//DTD SVG 1.1//EN" "http://www.w3.org/Graphics/SVG/1.1/DTD/svg11.dtd">
    <svg version="1.1"
      width="800"
      height="600"
      xmlns="http://www.w3.org/2000/svg"
    >
<defs>
            <style><![CDATA[
              svg{
              --prussianBlue: #003153;
              --white: #f3ffff;
              --red: hsl(0, 100%, 50%);
              }

              svg{
                background-color: var(--prussianBlue);
              }
              /* bottom left of text block */
              .bl {
                fill: var(--red);
                stroke: None;
              }
              /* top right corner of text block */
              .tr {
                fill: var(--red);
                stroke: None;

              }
              rect {
                stroke: var(--white);
                fill: none
              }
              text {
                fill: var(--white);
                font-weight: bold;
              }
            ]]></style>
          </defs>
<g font-family="Courier">
<rect x="286.50522" y="281.83148" width="186.17114" height="30.904419"/>
<circle class="bl" cx="286.50522" cy="312.7359" r="2" />
<circle class="tr" cx="472.67636" cy="281.83148" r="2" />
<text transform="translate(286.50522, 312.7359) rotate(0)" font-size="30.904419" >TENEBRIFIC</text>

<rect x="656.2992" y="213.06825" width="30.89325" height="186.10396"/>
<circle class="bl" cx="656.2992" cy="399.1722" r="2" />
<circle class="tr" cx="687.19244" cy="213.06825" r="2" />
<text transform="translate(687.19244, 399.1722) rotate(270)" font-size="30.89325" >STELLIFIES</text>

<rect x="345.60928" y="82.385086" width="34.529358" height="166.40651"/>
<circle class="bl" cx="345.60928" cy="248.7916" r="2" />
<circle class="tr" cx="380.13864" cy="82.385086" r="2" />
<text transform="translate(345.60928, 82.385086) rotate(90)" fill="" font-size="34.529358" >HAFTORAH</text>

<rect x="169.62814" y="127.20645" width="36.900757" height="155.60562"/>
<circle class="bl" cx="169.62814" cy="282.81207" r="2" />
<circle class="tr" cx="206.5289" cy="127.20644" r="2" />
<text transform="translate(169.62814, 127.20644) rotate(90)" fill="" font-size="36.900757" >RUPTURE</text>

<rect x="423.81955" y="470.7575" width="143.98819" height="39.83673"/>
<circle class="bl" cx="423.81955" cy="510.59424" r="2" />
<circle class="tr" cx="567.80774" cy="470.7575" r="2" />
<text transform="translate(423.81955, 510.59424) rotate(0)" font-size="39.83673" >ALKIES</text>

<rect x="423.82297" y="22.03714" width="194.90823" height="29.413422"/>
<circle class="bl" cx="423.82297" cy="51.45056" r="2" />
<circle class="tr" cx="618.7312" cy="22.03714" r="2" />
<text transform="translate(423.82297, 51.45056) rotate(0)" font-size="29.413422" >OVERCRAMMED</text>

<rect x="181.92711" y="516.3114" width="166.21053" height="34.48871"/>
<circle class="bl" cx="181.92711" cy="550.8001" r="2" />
<circle class="tr" cx="348.13763" cy="516.3114" r="2" />
<text transform="translate(181.92711, 550.8001) rotate(0)" font-size="34.48871" >AROUSERS</text>

<rect x="257.7509" y="330.86212" width="176.24686" height="32.50775"/>
<circle class="bl" cx="257.7509" cy="363.36987" r="2" />
<circle class="tr" cx="433.99774" cy="330.86212" r="2" />
<text transform="translate(257.7509, 363.36987) rotate(0)" font-size="32.50775" >CATCHMENT</text>

<rect x="353.91006" y="387.46683" width="32.502167" height="176.21664"/>
<circle class="bl" cx="353.91006" cy="563.6835" r="2" />
<circle class="tr" cx="386.41223" cy="387.46683" r="2" />
<text transform="translate(353.91006, 387.46683) rotate(90)" fill="" font-size="32.502167" >JITTERING</text>

<rect x="93.99662" y="349.88336" width="32.49993" height="176.20447"/>
<circle class="bl" cx="93.99662" cy="526.0878" r="2" />
<circle class="tr" cx="126.49655" cy="349.88336" r="2" />
<text transform="translate(93.99662, 349.88336) rotate(90)" fill="" font-size="32.49993" >POGROMIST</text>

<rect x="0.07715607" y="123.13545" width="29.34732" height="194.4702"/>
<circle class="bl" cx="0.07715607" cy="317.60565" r="2" />
<circle class="tr" cx="29.424477" cy="123.13545" r="2" />
<text transform="translate(29.424477, 317.60565) rotate(270)" font-size="29.34732" >ADVENTURING</text>

<rect x="732.2654" y="266.21725" width="26.011597" height="219.37509"/>
<circle class="bl" cx="732.2654" cy="485.59235" r="2" />
<circle class="tr" cx="758.277" cy="266.21725" r="2" />
<text transform="translate(732.2654, 266.21725) rotate(90)" fill="" font-size="26.011597" >PERFECTIVITIES</text>

<rect x="132.61584" y="33.02307" width="36.773148" height="155.0675"/>
<circle class="bl" cx="132.61584" cy="188.09058" r="2" />
<circle class="tr" cx="169.38899" cy="33.02307" r="2" />
<text transform="translate(132.61584, 33.02307) rotate(90)" fill="" font-size="36.773148" >CHORALS</text>

<rect x="411.24622" y="159.4307" width="175.72803" height="32.41205"/>
<circle class="bl" cx="411.24622" cy="191.84274" r="2" />
<circle class="tr" cx="586.97424" cy="159.4307" r="2" />
<text transform="translate(411.24622, 191.84274) rotate(0)" font-size="32.41205" >HAVELOCKS</text>

<rect x="574.3881" y="387.75647" width="36.723877" height="154.85962"/>
<circle class="bl" cx="574.3881" cy="542.6161" r="2" />
<circle class="tr" cx="611.112" cy="387.75647" r="2" />
<text transform="translate(611.112, 542.6161) rotate(270)" font-size="36.723877" >JEWELER</text>

<rect x="763.89453" y="82.9314" width="25.961487" height="218.95209"/>
<circle class="bl" cx="763.89453" cy="301.88348" r="2" />
<circle class="tr" cx="789.856" cy="82.9314" r="2" />
<text transform="translate(763.89453, 82.9314) rotate(90)" fill="" font-size="25.961487" >PROTECTIONISMS</text>

<rect x="645.0794" y="21.450542" width="143.33691" height="39.656544"/>
<circle class="bl" cx="645.0794" cy="61.107086" r="2" />
<circle class="tr" cx="788.4163" cy="21.450542" r="2" />
<text transform="translate(645.0794, 61.107086) rotate(0)" font-size="39.656544" >CRIMES</text>

<rect x="597.3772" y="81.37222" width="34.331238" height="165.45166"/>
<circle class="bl" cx="597.3772" cy="246.82388" r="2" />
<circle class="tr" cx="631.70844" cy="81.37222" r="2" />
<text transform="translate(631.70844, 246.82388) rotate(270)" font-size="34.331238" >COAMINGS</text>

<rect x="245.4576" y="166.16788" width="36.690567" height="154.71924"/>
<circle class="bl" cx="245.4576" cy="320.88712" r="2" />
<circle class="tr" cx="282.14816" cy="166.16788" r="2" />
<text transform="translate(282.14816, 320.88712) rotate(270)" font-size="36.690567" >PROSING</text>

<rect x="696.6178" y="170.58806" width="28.002441" height="202.42735"/>
<circle class="bl" cx="696.6178" cy="373.0154" r="2" />
<circle class="tr" cx="724.62024" cy="170.58806" r="2" />
<text transform="translate(696.6178, 170.58806) rotate(90)" fill="" font-size="28.002441" >STONEMASONRY</text>

<rect x="199.03374" y="86.38513" width="143.07033" height="39.58278"/>
<circle class="bl" cx="199.03374" cy="125.96791" r="2" />
<circle class="tr" cx="342.10406" cy="86.38513" r="2" />
<text transform="translate(199.03374, 125.96791) rotate(0)" font-size="39.58278" >MISFED</text>

<rect x="448.59113" y="342.9934" width="193.56189" height="29.210236"/>
<circle class="bl" cx="448.59113" cy="372.20364" r="2" />
<circle class="tr" cx="642.153" cy="342.9934" r="2" />
<text transform="translate(448.59113, 372.20364) rotate(0)" font-size="29.210236" >PARLIAMENTS</text>

<rect x="357.3593" y="565.0782" width="210.39703" height="26.866089"/>
<circle class="bl" cx="357.3593" cy="591.9443" r="2" />
<circle class="tr" cx="567.75635" cy="565.0782" r="2" />
<text transform="translate(357.3593, 591.9443) rotate(0)" font-size="26.866089" >FOOLISHNESSES</text>

<rect x="54.688454" y="203.86862" width="32.279106" height="175.00723"/>
<circle class="bl" cx="54.688454" cy="378.87585" r="2" />
<circle class="tr" cx="86.96756" cy="203.86862" r="2" />
<text transform="translate(54.688454, 203.86862) rotate(90)" fill="" font-size="32.279106" >RECENTEST</text>

<rect x="17.056942" y="401.63812" width="29.188301" height="193.41644"/>
<circle class="bl" cx="17.056942" cy="595.05457" r="2" />
<circle class="tr" cx="46.245243" cy="401.63812" r="2" />
<text transform="translate(17.056942, 401.63812) rotate(90)" fill="" font-size="29.188301" >EXTREMENESS</text>

<rect x="127.61402" y="441.87476" width="164.91425" height="34.219696"/>
<circle class="bl" cx="127.61402" cy="476.09445" r="2" />
<circle class="tr" cx="292.52826" cy="441.87476" r="2" />
<text transform="translate(127.61402, 476.09445) rotate(0)" font-size="34.219696" >LEISTERS</text>

<rect x="724.69244" y="64.0627" width="27.934082" height="201.93312"/>
<circle class="bl" cx="724.69244" cy="265.99582" r="2" />
<circle class="tr" cx="752.6265" cy="64.0627" r="2" />
<text transform="translate(752.6265, 265.99582) rotate(270)" font-size="27.934082" >WORKMANSHIPS</text>

<rect x="403.89377" y="126.63511" width="193.17935" height="29.15252"/>
<circle class="bl" cx="403.89377" cy="155.78763" r="2" />
<circle class="tr" cx="597.0731" cy="126.63511" r="2" />
<text transform="translate(403.89377, 155.78763) rotate(0)" font-size="29.15252" >DISHEVELING</text>

<rect x="230.62305" y="53.200462" width="193.09067" height="29.139137"/>
<circle class="bl" cx="230.62305" cy="82.3396" r="2" />
<circle class="tr" cx="423.7137" cy="53.200462" r="2" />
<text transform="translate(230.62305, 82.3396) rotate(0)" font-size="29.139137" >SUSURRATING</text>

<rect x="695.272" y="400.9733" width="32.204346" height="174.60172"/>
<circle class="bl" cx="695.272" cy="575.575" r="2" />
<circle class="tr" cx="727.4763" cy="400.9733" r="2" />
<text transform="translate(727.4763, 575.575) rotate(270)" font-size="32.204346" >RECONTACT</text>

<rect x="101.77193" y="14.095688" width="30.549362" height="184.03227"/>
<circle class="bl" cx="101.77193" cy="198.12796" r="2" />
<circle class="tr" cx="132.32129" cy="14.095688" r="2" />
<text transform="translate(101.77193, 14.095688) rotate(90)" fill="" font-size="30.549362" >NUCLEATING</text>

<rect x="611.7971" y="396.29974" width="34.15442" height="164.59961"/>
<circle class="bl" cx="611.7971" cy="560.89935" r="2" />
<circle class="tr" cx="645.95154" cy="396.29974" r="2" />
<text transform="translate(645.95154, 560.89935) rotate(270)" font-size="34.15442" >UNFRAMED</text>

<rect x="761.60754" y="330.63284" width="32.200623" height="174.5817"/>
<circle class="bl" cx="761.60754" cy="505.21454" r="2" />
<circle class="tr" cx="793.80817" cy="330.63284" r="2" />
<text transform="translate(761.60754, 330.63284) rotate(90)" fill="" font-size="32.200623" >ALTRICIAL</text>

<rect x="394.45828" y="512.6621" width="174.55264" height="32.19525"/>
<circle class="bl" cx="394.45828" cy="544.85736" r="2" />
<circle class="tr" cx="569.0109" cy="512.6621" r="2" />
<text transform="translate(394.45828, 544.85736) rotate(0)" font-size="32.19525" >EGGHEADED</text>

<rect x="656.9584" y="416.05896" width="34.121094" height="164.43909"/>
<circle class="bl" cx="656.9584" cy="580.49805" r="2" />
<circle class="tr" cx="691.07947" cy="416.05896" r="2" />
<text transform="translate(656.9584, 416.05896) rotate(90)" fill="" font-size="34.121094" >PRESOLVE</text>

<rect x="413.18045" y="196.88242" width="174.36179" height="32.160065"/>
<circle class="bl" cx="413.18045" cy="229.04248" r="2" />
<circle class="tr" cx="587.54224" cy="196.88242" r="2" />
<text transform="translate(413.18045, 229.04248) rotate(0)" font-size="32.160065" >OUTSKIRTS</text>

<rect x="59.714985" y="416.4586" width="34.09525" height="164.31448"/>
<circle class="bl" cx="59.714985" cy="580.7731" r="2" />
<circle class="tr" cx="93.810234" cy="416.4586" r="2" />
<text transform="translate(59.714985, 416.4586) rotate(90)" fill="" font-size="34.09525" >UNSEATED</text>

<rect x="236.63568" y="15.739449" width="152.8804" height="36.254494"/>
<circle class="bl" cx="236.63568" cy="51.993942" r="2" />
<circle class="tr" cx="389.51608" cy="15.739449" r="2" />
<text transform="translate(236.63568, 51.993942) rotate(0)" font-size="36.254494" >RAPHIDE</text>

<rect x="65.5143" y="3.474289" width="33.886032" height="163.30618"/>
<circle class="bl" cx="65.5143" cy="166.78047" r="2" />
<circle class="tr" cx="99.40033" cy="3.474289" r="2" />
<text transform="translate(99.40033, 166.78047) rotate(270)" font-size="33.886032" >ASSERTED</text>

<rect x="159.55247" y="385.9556" width="182.38615" height="30.276093"/>
<circle class="bl" cx="159.55247" cy="416.2317" r="2" />
<circle class="tr" cx="341.93863" cy="385.9556" r="2" />
<text transform="translate(159.55247, 416.2317) rotate(0)" font-size="30.276093" >ENRAPTURES</text>

<rect x="439.79434" y="53.165493" width="141.18979" height="39.06251"/>
<circle class="bl" cx="439.79434" cy="92.228004" r="2" />
<circle class="tr" cx="580.98413" cy="53.165493" r="2" />
<text transform="translate(439.79434, 92.228004) rotate(0)" font-size="39.06251" >RIOJAS</text>

<rect x="210.3113" y="177.81638" width="33.799667" height="162.88998"/>
<circle class="bl" cx="210.3113" cy="340.70636" r="2" />
<circle class="tr" cx="244.11096" cy="177.81638" r="2" />
<text transform="translate(244.11096, 340.70636) rotate(270)" font-size="33.799667" >MAMMOTHS</text>

<rect x="384.27097" y="237.7542" width="171.9288" height="31.711319"/>
<circle class="bl" cx="384.27097" cy="269.4655" r="2" />
<circle class="tr" cx="556.19977" cy="237.7542" r="2" />
<text transform="translate(384.27097, 269.4655) rotate(0)" font-size="31.711319" >POPULISTS</text>

<rect x="128.94354" y="225.49052" width="28.65767" height="189.90025"/>
<circle class="bl" cx="128.94354" cy="415.39078" r="2" />
<circle class="tr" cx="157.60121" cy="225.49052" r="2" />
<text transform="translate(128.94354, 225.49052) rotate(90)" fill="" font-size="28.65767" >ATTENUATING</text>

<rect x="407.92712" y="400.10107" width="161.6344" height="33.539154"/>
<circle class="bl" cx="407.92712" cy="433.64023" r="2" />
<circle class="tr" cx="569.5615" cy="400.10107" r="2" />
<text transform="translate(407.92712, 433.64023) rotate(0)" font-size="33.539154" >RETRONYM</text>

<rect x="130.44891" y="561.8327" width="189.35242" height="28.575012"/>
<circle class="bl" cx="130.44891" cy="590.4077" r="2" />
<circle class="tr" cx="319.80133" cy="561.8327" r="2" />
<text transform="translate(130.44891, 590.4077) rotate(0)" font-size="28.575012" >ELECTIONEER</text>

<rect x="393.72092" y="437.35626" width="168.19437" height="31.022522"/>
<circle class="bl" cx="393.72092" cy="468.37878" r="2" />
<circle class="tr" cx="561.9153" cy="437.35626" r="2" />
<text transform="translate(393.72092, 468.37878) rotate(0)" font-size="31.022522" >GARFISHES</text>

<rect x="29.479408" y="106.90256" width="24.714443" height="208.43506"/>
<circle class="bl" cx="29.479408" cy="315.33762" r="2" />
<circle class="tr" cx="54.19385" cy="106.90255" r="2" />
<text transform="translate(29.479408, 106.90255) rotate(90)" fill="" font-size="24.714443" >RETRIEVABILITY</text>

<rect x="497.20584" y="294.68356" width="155.56882" height="32.280518"/>
<circle class="bl" cx="497.20584" cy="326.96408" r="2" />
<circle class="tr" cx="652.77466" cy="294.68356" r="2" />
<text transform="translate(497.20584, 326.96408) rotate(0)" font-size="32.280518" >INFAMIES</text>

<rect x="644.6577" y="66.481415" width="37.223267" height="134.54207"/>
<circle class="bl" cx="644.6577" cy="201.02348" r="2" />
<circle class="tr" cx="681.881" cy="66.481415" r="2" />
<text transform="translate(681.881, 201.02348) rotate(270)" font-size="37.223267" >HOAXED</text>

<rect x="148.90298" y="482.83295" width="164.58417" height="30.356628"/>
<circle class="bl" cx="148.90298" cy="513.1896" r="2" />
<circle class="tr" cx="313.48715" cy="482.83295" r="2" />
<text transform="translate(148.90298, 513.1896) rotate(0)" font-size="30.356628" >DISULFIDE</text>

<rect x="397.90344" y="92.37836" width="162.01678" height="29.883095"/>
<circle class="bl" cx="397.90344" cy="122.26145" r="2" />
<circle class="tr" cx="559.9202" cy="92.37836" r="2" />
<text transform="translate(397.90344, 122.26145) rotate(0)" font-size="29.883095" >GLOSSIEST</text>

<rect x="298.10895" y="141.97827" width="35.59848" height="128.66925"/>
<circle class="bl" cx="298.10895" cy="270.64752" r="2" />
<circle class="tr" cx="333.70743" cy="141.97827" r="2" />
<text transform="translate(298.10895, 141.97827) rotate(90)" fill="" font-size="35.59848" >GADDED</text>

<rect x="94.09859" y="200.34508" width="30.590134" height="147.42235"/>
<circle class="bl" cx="94.09859" cy="347.76743" r="2" />
<circle class="tr" cx="124.68872" cy="200.34508" r="2" />
<text transform="translate(124.68872, 347.76743) rotate(270)" font-size="30.590134" >ANNOUNCE</text>

</g>
</svg>
